<svg width="128" height="16" viewBox="0 0 128 16" fill="none" xmlns="http://www.w3.org/2000/svg">
<path d="M12.8849 5.36222H10.2287C10.1529 4.92661 10.0133 4.54072 9.80966 4.20455C9.60606 3.86364 9.35275 3.57481 9.04972 3.33807C8.74669 3.10133 8.40104 2.92377 8.01278 2.8054C7.62926 2.68229 7.21496 2.62074 6.76989 2.62074C5.97917 2.62074 5.27841 2.8196 4.66761 3.21733C4.05682 3.61032 3.5786 4.18797 3.23295 4.95028C2.88731 5.70786 2.71449 6.63352 2.71449 7.72727C2.71449 8.83996 2.88731 9.77746 3.23295 10.5398C3.58333 11.2973 4.06155 11.8703 4.66761 12.2585C5.27841 12.642 5.9768 12.8338 6.76278 12.8338C7.19839 12.8338 7.60559 12.777 7.98438 12.6634C8.3679 12.545 8.71117 12.3722 9.0142 12.1449C9.32197 11.9176 9.58002 11.6383 9.78835 11.3068C10.0014 10.9754 10.1482 10.5966 10.2287 10.1705L12.8849 10.1847C12.7855 10.8759 12.5701 11.5246 12.2386 12.1307C11.9119 12.7367 11.4834 13.2718 10.9531 13.7358C10.4228 14.1951 9.80256 14.5549 9.09233 14.8153C8.3821 15.071 7.59375 15.1989 6.72727 15.1989C5.44886 15.1989 4.30777 14.9029 3.30398 14.3111C2.30019 13.7192 1.50947 12.8646 0.931818 11.7472C0.354167 10.6297 0.0653409 9.28977 0.0653409 7.72727C0.0653409 6.16004 0.356534 4.82008 0.93892 3.70739C1.52131 2.58996 2.31439 1.73532 3.31818 1.14347C4.32197 0.551609 5.45833 0.255681 6.72727 0.255681C7.53693 0.255681 8.28977 0.369318 8.9858 0.59659C9.68182 0.823863 10.3021 1.15767 10.8466 1.59801C11.3911 2.03362 11.8385 2.56866 12.1889 3.20312C12.544 3.83286 12.776 4.55256 12.8849 5.36222ZM19.9428 15.2131C18.8775 15.2131 17.9542 14.9787 17.1729 14.5099C16.3917 14.0412 15.7856 13.3854 15.3548 12.5426C14.9286 11.6998 14.7156 10.715 14.7156 9.58807C14.7156 8.46117 14.9286 7.47396 15.3548 6.62642C15.7856 5.77888 16.3917 5.12074 17.1729 4.65199C17.9542 4.18324 18.8775 3.94886 19.9428 3.94886C21.0082 3.94886 21.9315 4.18324 22.7127 4.65199C23.494 5.12074 24.0977 5.77888 24.5238 6.62642C24.9547 7.47396 25.1701 8.46117 25.1701 9.58807C25.1701 10.715 24.9547 11.6998 24.5238 12.5426C24.0977 13.3854 23.494 14.0412 22.7127 14.5099C21.9315 14.9787 21.0082 15.2131 19.9428 15.2131ZM19.957 13.1534C20.5347 13.1534 21.0176 12.9948 21.4059 12.6776C21.7942 12.3556 22.083 11.9247 22.2724 11.3849C22.4665 10.8452 22.5636 10.2438 22.5636 9.58097C22.5636 8.91335 22.4665 8.30966 22.2724 7.76989C22.083 7.22538 21.7942 6.79214 21.4059 6.47017C21.0176 6.1482 20.5347 5.98722 19.957 5.98722C19.3652 5.98722 18.8728 6.1482 18.4798 6.47017C18.0915 6.79214 17.8003 7.22538 17.6062 7.76989C17.4168 8.30966 17.3221 8.91335 17.3221 9.58097C17.3221 10.2438 17.4168 10.8452 17.6062 11.3849C17.8003 11.9247 18.0915 12.3556 18.4798 12.6776C18.8728 12.9948 19.3652 13.1534 19.957 13.1534ZM31.4006 15.1918C30.5436 15.1918 29.7765 14.9716 29.0994 14.5312C28.4223 14.0909 27.8873 13.4517 27.4943 12.6136C27.1013 11.7756 26.9048 10.7576 26.9048 9.55966C26.9048 8.34754 27.1037 7.32481 27.5014 6.49148C27.9039 5.65341 28.446 5.02131 29.1278 4.59517C29.8097 4.1643 30.5696 3.94886 31.4077 3.94886C32.0469 3.94886 32.5724 4.05777 32.9844 4.27557C33.3963 4.48864 33.723 4.74669 33.9645 5.04972C34.206 5.34801 34.393 5.62973 34.5256 5.89489H34.6321V0.454545H37.2102V15H34.6818V13.2812H34.5256C34.393 13.5464 34.2012 13.8281 33.9503 14.1264C33.6993 14.42 33.3679 14.6709 32.956 14.8793C32.544 15.0876 32.0256 15.1918 31.4006 15.1918ZM32.1179 13.0824C32.6624 13.0824 33.1264 12.9356 33.5099 12.642C33.8935 12.3437 34.1847 11.9295 34.3835 11.3991C34.5824 10.8688 34.6818 10.2509 34.6818 9.54545C34.6818 8.83996 34.5824 8.2268 34.3835 7.70597C34.1894 7.18513 33.9006 6.7803 33.517 6.49148C33.1383 6.20265 32.6719 6.05824 32.1179 6.05824C31.545 6.05824 31.0668 6.20739 30.6832 6.50568C30.2997 6.80398 30.0109 7.21591 29.8168 7.74148C29.6226 8.26705 29.5256 8.86837 29.5256 9.54545C29.5256 10.2273 29.6226 10.8357 29.8168 11.3707C30.0156 11.901 30.3068 12.3201 30.6903 12.6278C31.0786 12.9309 31.5545 13.0824 32.1179 13.0824ZM44.7795 15.2131C43.6857 15.2131 42.7411 14.9858 41.9457 14.5312C41.1549 14.072 40.5465 13.4233 40.1204 12.5852C39.6942 11.7424 39.4812 10.7505 39.4812 9.60938C39.4812 8.48722 39.6942 7.50237 40.1204 6.65483C40.5513 5.80256 41.1526 5.13968 41.9244 4.66619C42.6961 4.18797 43.6029 3.94886 44.6445 3.94886C45.3169 3.94886 45.9513 4.05777 46.5479 4.27557C47.1493 4.48864 47.6796 4.82008 48.1388 5.26989C48.6029 5.7197 48.9674 6.29261 49.2326 6.98864C49.4978 7.67992 49.6303 8.50379 49.6303 9.46023V10.2486H40.6886V8.51562H47.1658C47.1611 8.0232 47.0546 7.58523 46.8462 7.2017C46.6379 6.81345 46.3467 6.50805 45.9727 6.28551C45.6033 6.06297 45.1725 5.9517 44.68 5.9517C44.1545 5.9517 43.6928 6.07955 43.2951 6.33523C42.8974 6.58617 42.5872 6.91761 42.3647 7.32955C42.1469 7.73674 42.0356 8.18419 42.0309 8.67188V10.1847C42.0309 10.8191 42.1469 11.3636 42.3789 11.8182C42.6109 12.268 42.9353 12.6136 43.3519 12.8551C43.7686 13.0919 44.2563 13.2102 44.815 13.2102C45.189 13.2102 45.5276 13.1581 45.8306 13.054C46.1336 12.9451 46.3964 12.7865 46.619 12.5781C46.8415 12.3698 47.0096 12.1117 47.1232 11.804L49.5238 12.0739C49.3723 12.7083 49.0835 13.2623 48.6573 13.7358C48.2359 14.2045 47.6961 14.5691 47.038 14.8295C46.3799 15.0852 45.627 15.2131 44.7795 15.2131ZM56.8267 0.255681C57.5227 0.260416 58.1998 0.383523 58.858 0.625C59.5208 0.861742 60.1174 1.25 60.6477 1.78977C61.178 2.32481 61.5994 3.04214 61.9119 3.94176C62.2244 4.84138 62.3807 5.95407 62.3807 7.27983C62.3854 8.52983 62.2528 9.64725 61.983 10.6321C61.7178 11.6122 61.3366 12.4408 60.8395 13.1179C60.3423 13.795 59.7434 14.3111 59.0426 14.6662C58.3419 15.0213 57.5535 15.1989 56.6776 15.1989C55.759 15.1989 54.9446 15.0189 54.2344 14.6591C53.5289 14.2992 52.9583 13.8068 52.5227 13.1818C52.0871 12.5568 51.8196 11.8419 51.7202 11.0369H54.3125C54.4451 11.6146 54.715 12.0739 55.1222 12.4148C55.5341 12.7509 56.0526 12.919 56.6776 12.919C57.6861 12.919 58.4626 12.4811 59.0071 11.6051C59.5516 10.7292 59.8239 9.51231 59.8239 7.95455H59.7244C59.4924 8.37121 59.1918 8.73106 58.8224 9.03409C58.4531 9.33239 58.0341 9.56203 57.5653 9.72301C57.1013 9.884 56.6089 9.96449 56.0881 9.96449C55.2358 9.96449 54.4688 9.76089 53.7869 9.35369C53.1098 8.9465 52.5724 8.38778 52.1747 7.67756C51.7817 6.96733 51.5829 6.1553 51.5781 5.24148C51.5781 4.29451 51.7959 3.4446 52.2315 2.69176C52.6719 1.93419 53.285 1.33759 54.071 0.901989C54.857 0.461647 55.7756 0.246211 56.8267 0.255681ZM56.8338 2.38636C56.3224 2.38636 55.8608 2.51184 55.4489 2.76278C55.0417 3.009 54.7197 3.34517 54.483 3.77131C54.2509 4.19271 54.1349 4.66383 54.1349 5.18466C54.1397 5.70076 54.2557 6.16951 54.483 6.59091C54.715 7.01231 55.0298 7.34612 55.4276 7.59233C55.83 7.83854 56.2893 7.96165 56.8054 7.96165C57.1889 7.96165 57.5464 7.88826 57.8778 7.74148C58.2093 7.5947 58.4981 7.3911 58.7443 7.13068C58.9953 6.86553 59.1894 6.56487 59.3267 6.22869C59.4688 5.89252 59.5374 5.5374 59.5327 5.16335C59.5327 4.66619 59.4143 4.20691 59.1776 3.78551C58.9455 3.36411 58.6259 3.02557 58.2188 2.76989C57.8163 2.5142 57.3546 2.38636 56.8338 2.38636ZM64.483 12.3011V10.206L70.6548 0.454545H72.402V3.4375H71.3366L67.1818 10.0213V10.1349H75.7969V12.3011H64.483ZM71.4219 15V11.6619L71.4503 10.7244V0.454545H73.9361V15H71.4219ZM83.169 15V0.454545H85.804V12.7912H92.2102V15H83.169ZM97.5227 15.2202C96.8314 15.2202 96.2088 15.0971 95.6548 14.8509C95.1056 14.5999 94.67 14.2306 94.348 13.7429C94.0308 13.2552 93.8722 12.6539 93.8722 11.9389C93.8722 11.3234 93.9858 10.8144 94.2131 10.4119C94.4403 10.0095 94.7505 9.6875 95.1435 9.44602C95.5365 9.20455 95.9792 9.02225 96.4716 8.89915C96.9688 8.77131 97.4825 8.67898 98.0128 8.62216C98.652 8.55587 99.1705 8.49669 99.5682 8.4446C99.9659 8.38778 100.255 8.30256 100.435 8.18892C100.619 8.07055 100.712 7.88826 100.712 7.64205V7.59943C100.712 7.06439 100.553 6.65009 100.236 6.35653C99.9186 6.06297 99.4616 5.91619 98.8651 5.91619C98.2353 5.91619 97.7358 6.0535 97.3665 6.32812C97.0019 6.60275 96.7557 6.92708 96.6278 7.30114L94.2273 6.96023C94.4167 6.29735 94.7292 5.74337 95.1648 5.2983C95.6004 4.84848 96.133 4.51231 96.7628 4.28977C97.3925 4.0625 98.0885 3.94886 98.8509 3.94886C99.3764 3.94886 99.8996 4.01042 100.42 4.13352C100.941 4.25663 101.417 4.46023 101.848 4.74432C102.279 5.02367 102.625 5.40483 102.885 5.88778C103.15 6.37074 103.283 6.97443 103.283 7.69886V15H100.811V13.5014H100.726C100.57 13.8045 100.349 14.0885 100.065 14.3537C99.786 14.6141 99.4332 14.8248 99.0071 14.9858C98.5857 15.142 98.0909 15.2202 97.5227 15.2202ZM98.1903 13.331C98.7064 13.331 99.1539 13.2292 99.5327 13.0256C99.9115 12.8172 100.203 12.5426 100.406 12.2017C100.615 11.8608 100.719 11.4891 100.719 11.0866V9.80114C100.638 9.86742 100.501 9.92898 100.307 9.9858C100.117 10.0426 99.9044 10.0923 99.6676 10.1349C99.4309 10.1776 99.1965 10.2154 98.9645 10.2486C98.7325 10.2817 98.5313 10.3101 98.3608 10.3338C97.9773 10.3859 97.634 10.4711 97.331 10.5895C97.0279 10.7079 96.7888 10.8736 96.6136 11.0866C96.4384 11.295 96.3509 11.5649 96.3509 11.8963C96.3509 12.3698 96.5237 12.7273 96.8693 12.9688C97.215 13.2102 97.6553 13.331 98.1903 13.331ZM105.982 15V0.454545H108.553V5.89489H108.659C108.792 5.62973 108.979 5.34801 109.22 5.04972C109.462 4.74669 109.788 4.48864 110.2 4.27557C110.612 4.05777 111.138 3.94886 111.777 3.94886C112.62 3.94886 113.38 4.1643 114.057 4.59517C114.739 5.02131 115.278 5.65341 115.676 6.49148C116.079 7.32481 116.28 8.34754 116.28 9.55966C116.28 10.7576 116.083 11.7756 115.69 12.6136C115.297 13.4517 114.762 14.0909 114.085 14.5312C113.408 14.9716 112.641 15.1918 111.784 15.1918C111.159 15.1918 110.641 15.0876 110.229 14.8793C109.817 14.6709 109.485 14.42 109.234 14.1264C108.988 13.8281 108.796 13.5464 108.659 13.2812H108.51V15H105.982ZM108.503 9.54545C108.503 10.2509 108.602 10.8688 108.801 11.3991C109.005 11.9295 109.296 12.3437 109.675 12.642C110.058 12.9356 110.522 13.0824 111.067 13.0824C111.635 13.0824 112.111 12.9309 112.494 12.6278C112.878 12.3201 113.167 11.901 113.361 11.3707C113.56 10.8357 113.659 10.2273 113.659 9.54545C113.659 8.86837 113.562 8.26705 113.368 7.74148C113.174 7.21591 112.885 6.80398 112.501 6.50568C112.118 6.20739 111.64 6.05824 111.067 6.05824C110.518 6.05824 110.051 6.20265 109.668 6.49148C109.284 6.7803 108.993 7.18513 108.794 7.70597C108.6 8.2268 108.503 8.83996 108.503 9.54545ZM127.088 6.97443L124.744 7.23011C124.678 6.99337 124.562 6.77083 124.396 6.5625C124.235 6.35417 124.017 6.18608 123.743 6.05824C123.468 5.9304 123.132 5.86648 122.734 5.86648C122.199 5.86648 121.749 5.98248 121.385 6.21449C121.025 6.4465 120.847 6.74716 120.852 7.11648C120.847 7.43371 120.963 7.69176 121.2 7.89062C121.441 8.08949 121.839 8.25284 122.393 8.38068L124.254 8.77841C125.286 9.00095 126.053 9.35369 126.555 9.83665C127.062 10.3196 127.317 10.9517 127.322 11.733C127.317 12.4195 127.116 13.0256 126.718 13.5511C126.325 14.072 125.779 14.4792 125.078 14.7727C124.377 15.0663 123.572 15.2131 122.663 15.2131C121.328 15.2131 120.253 14.9337 119.439 14.375C118.624 13.8116 118.139 13.0279 117.983 12.0241L120.49 11.7827C120.603 12.2751 120.845 12.6468 121.214 12.8977C121.583 13.1487 122.064 13.2741 122.656 13.2741C123.267 13.2741 123.757 13.1487 124.126 12.8977C124.5 12.6468 124.687 12.3366 124.687 11.9673C124.687 11.6548 124.566 11.3968 124.325 11.1932C124.088 10.9896 123.719 10.8333 123.217 10.7244L121.356 10.3338C120.31 10.116 119.536 9.74905 119.034 9.23295C118.532 8.71212 118.283 8.05398 118.288 7.25852C118.283 6.58617 118.466 6.00379 118.835 5.51136C119.209 5.0142 119.727 4.63068 120.39 4.3608C121.058 4.08617 121.827 3.94886 122.699 3.94886C123.977 3.94886 124.983 4.22112 125.717 4.76562C126.456 5.31013 126.913 6.0464 127.088 6.97443Z" fill="#1C1C1C"/>
</svg>
