<svg xmlns="http://www.w3.org/2000/svg" xml:space="preserve" width="1500" height="1500" data-id="lg_hCTYpTRBWRkwVcRVfh" data-version="1" viewBox="0 0 1500 1500"><path fill="#fff" stroke="transparent" d="M0 0h1500v1500H0z"/><g data-padding="20"><g transform="translate(-517.123 -529.467)scale(1.65369)"><path fill="#7ec8ed" d="M1030.26 734.303c-.516 2.15-2.577 2.763-3.968 4.05-.327.302-.334 1.002-.373 1.528-.01.14.382.38.627.458 1.323.41 2.716.654 3.963 1.223.67.306 1.18 1.102 1.566 1.787.09.16-.542.924-.977 1.15-3.22 1.676-6.206 3.683-8.92 6.086-.398.353-.76.862-.896 1.364-.131.48-.103 1.139.14 1.55.25.42.874.925 1.285.886 1.35-.13 2.688-.452 4.014-.767 1.357-.323 2.065-.203 2.025.483-.03.52-.157 1.093-.425 1.53-.374.61-1.38 1.038-.23 1.83.84.58.884 1.298.119 1.937-1.492 1.245-2.994 2.438-4.88 3.142-1.542.575-2.985 1.46-4.392 2.337-.33.205-.541.983-.434 1.404.11.437.603.912 1.045 1.108 2.18.962 4.386.038 6.584-.001.23-.004.67.27.66.386-.04.452-.1 1.183-.364 1.29-2.312.948-4.69 1.733-7.01 2.664-2.571 1.034-5.185 2.013-7.27 3.965-.521.489-.468 1.697.23 2.17.45.307 1.006.462 1.47.754 1.44.906 1.643 1.252.57 2.498-1.296 1.508-1.363 2.872-.42 4.505 1.25 2.16 1.227 2.352-.03 3.168-.463.302-.988.506-1.48.769-.973.52-1.913 1.065-2.044 2.34-.09.876 1.39 1.258 3.624.84 1.912-.357 3.793-.911 5.715-1.178 1.352-.188 2.75-.04 4.127-.043l-.227-.21c-.584.542-1.082 1.254-1.766 1.596-2.687 1.34-5.343 2.566-7.697 4.62-2.006 1.75-4.807 2.59-7.251 3.842-1.46.749-2.948 1.458-4.334 2.326-.295.185-.388 1.045-.24 1.479.14.408.83 1.013 1.093.932 2.31-.716 4.216.31 6.163 1.236l-.143.242c-.876 1.558-2.482 2.1-3.94 2.86-1.454.759-2.927 1.5-4.285 2.409-.69.46-.77 1.214-.45 2.163.58 1.72.365 2.167-.643 2.684-1.225.63-2.5 1.166-3.698 1.844-1.18.67-2.452 1.302-3.398 2.238-2.437 2.412-5.37 3.827-8.59 4.753-5.824 1.674-11.66 3.313-17.486 4.978-.526.15-1.025.392-1.625.625-.195.735-.404 1.523-.647 2.286-2.337-1.234-4.85-1.3-7.363-1.358-3.058-.071-6.116-.146-8.99-.215-.504-.66-.942-1.04-1.13-1.52-.453-1.15-1.276-1.816-2.436-2.018-1.163-.203-2.506.8-3.18 2.237-1.066 2.276-.153 3.983 2.232 4.036 1.947.044 3.902.033 5.844-.095 4.998-.327 9.99-.733 14.985-1.108 6.494-1.58 12.907-3.437 19.277-5.46 1.55-.492 3.276-.471 4.928-.543.267-.012.624.702.822 1.133.077.168-.133.508-.278.726-.15.226-.344.473-.58.584-11.547 5.439-23.77 8.036-36.47 8.53-1.356.053-2.746-.338-4.097-.626-2.726-.58-5.425-1.294-8.16-1.831-1.92-.38-3.713 1.37-3.688 3.504.013 1.102.17 2.203.227 2.895-1.731 2.66-3.263 4.974-4.75 7.316-.641 1.009-1.55 1.567-2.668 1.843-1.62.402-3.232.854-4.87 1.16-11.938 2.244-23.932 1.872-35.92.59-9.72-1.037-19.46-1.955-29.066-3.897-2.173-.44-4.496-.12-6.671-.551-5.465-1.082-10.91-2.201-16.515-2.183-5.927-1.886-12.093-1.966-18.21-2.56-5.247-.508-10.433-1.657-15.648-2.513-1.652-.271-3.3-.64-4.963-.746-8.367-.53-16.626-1.876-24.92-3.015-6.634-.912-13.353-1.207-20.037-1.741-1.106-.09-2.275-.208-3.334.036-6.928 1.6-13.94.933-20.86.425-8.66-.635-17.311-.638-25.97-.742a1102 1102 0 0 0-18.446-.085c-10.662.05-21.144-1.462-31.634-3.193-8.264-1.364-16.615-2.21-24.94-3.191-2.505-.296-4.942-.655-7.348-1.52-2.886-1.036-5.918-1.66-8.85-2.58-2.394-.753-4.793-1.548-7.084-2.566-2.547-1.131-4.864-2.855-7.48-3.732-2.647-.888-5.336-1.584-7.74-3.06-1.476-.904-3.112-1.13-4.798-1.301-3.597-.365-7.184-.826-11.127-1.29l1.849-1.98c-4.172-.854-8.235-1.522-12.086-3.24-2.174-.97-4.912-.742-7.405-.91-2.265-.152-4.371-.397-6.14-2.14-.71-.7-1.986-.99-3.048-1.131-2.76-.37-5.544-.55-8.34-.808 1.896-1.211 4.395.406 6.25-1.12.215-.175.576-.402.563-.582-.037-.502-.114-1.083-.401-1.46-.315-.416-.85-.714-1.346-.933-2.327-1.025-4.771-1.591-7.318-1.531-2.242.054-4.454.023-6.59-.757.072-.281.103-.613.168-.62 3.02-.323 6.042-.618 9.29-.94.208-.72.36-1.483.645-2.19 1.302-3.218-.206-5.41-2.696-7.123-1.595-1.098-3.25-2.102-5.29-2.39-1.63-.231-3.251-.75-4.783-1.371-.682-.277-1.51-1.06-1.62-1.72-.47-2.805-2.36-3.39-4.768-3.707a293 293 0 0 1-14.855-2.333c-.974-.18-1.86-1.128-2.65-1.87-.305-.286-.28-.98-.286-1.49-.001-.128.444-.34.705-.38 1.37-.218 2.743-.493 4.125-.562 2.726-.137 5.458-.153 8.25-.744-1.56-.373-3.164-.623-4.665-1.163-1.015-.365-1.916-1.09-2.806-1.74-.96-.697-.596-2.14.486-2.712.85-.45 2.334.35 2.639-1.42l-7.632-.662c1.353-1.96 3.218-.72 4.603-1.417 1.242-.627 2.573-1.075 3.832-1.672.749-.356 1.45-.825 2.138-1.293.21-.143.46-.484.422-.684-.09-.476-.227-1.208-.546-1.334-1.8-.717-3.666-1.272-5.495-1.924-.203-.072-.488-.496-.434-.601.207-.401.494-1.005.828-1.06 3.286-.532 6.72-.185 9.83-1.76.604-.303.95-1.617.4-2.13-.802-.746-1.597-1.642-2.572-2.024-1.272-.5-2.706-.673-4.088-.788-8.07-.663-16.143-1.268-24.19-1.89-.13-.598-.39-1.122-.317-1.595.184-1.192.047-2.143-1.103-2.82a175 175 0 0 1-5.677-3.513c-.15-.097-.176-.527-.116-.767.05-.202.279-.434.483-.512 1.926-.728 3.979-.614 5.752.102 5.288 2.136 10.898 2.195 16.4 3.006 6.367.939 12.738 1.517 19.178 1.404 1.66-.03 3.367.11 4.98.483 3.36.774 6.626 1.197 9.693-.897 2.48-.31 4.954-.798 7.443-.897 7.024-.283 13.75-2.156 20.55-3.64.225-.048.459-.31.579-.53.272-.505-.008-.928-.76-.96-1.668-.07-3.34-.038-5.01-.071-1.671-.033-3.344-.053-5.01-.153-1.784-.106-2.196-.726-1.762-2.76.116-.54.39-1.066.405-1.605.02-.84-.152-1.634-1.097-2.03-2.364-.987-4.786-1.29-7.362-1.187-6.98.277-13.965.376-20.95.529-1.671.036-3.345.005-5.277.005.438-.514.633-.977.925-1.05 2.432-.596 4.868-1.51 7.329-1.595 7.266-.25 14.346-2.028 21.605-2.33 3.625-.153 7.236-.84 9.997-3.617 3.856-1.08 6.699-3.798 9.805-6.085.122-.09.07-.515-.008-.746-.074-.217-.288-.544-.45-.55-5.272-.152-10.508-.817-15.823.267-3.506.714-7.213.443-10.866.327 3.34-.584 6.66-1.05 9.944-1.937 3.752-1.016 7.715-1.242 11.573-1.886 3.58-.597 7.148-1.273 10.714-1.951 3.564-.68 7.125-1.37 10.673-2.123 1.91-.407 3.796-.942 5.684-1.45 1.405-.378 2.5-1.221 3.278-2.44 1.312-2.056 2.592-4.13 3.844-6.13 2.358.413 3.565 2.013 4.62 3.633 1.215 1.867 2.189 3.892 3.246 5.86 1.06 1.973 2.834 2.612 4.907 2.527 1.099-.044 2.277-.14 3.266-.567 8.159-3.517 16.808-3.886 25.486-4.114a583 583 0 0 1 35.2.133c4.198.143 8.355.685 12.525.879 9.497.44 18.93 1.516 28.395 2.26 6.682.528 13.376.91 20.064 1.359 8.92.598 17.857 1.023 26.758 1.838 15.012 1.376 30.11 1.876 45 4.562 4.105.74 8.32.878 12.483 1.31 13.332 1.385 26.642 2.936 40.038 3.693 16.742.944 33.48 1.9 50.246 2.238 3.429.07 6.688.814 9.87 1.71 7.5 2.11 15.127 4.036 21.625 8.685 1.394.997 2.907 1.602 4.632 1.752 1.665.144 3.332.345 4.974.65 1.962.366 3.847.297 5.794-.21 3.238-.843 6.496-1.7 9.8-2.18 4.416-.64 8.665-1.855 12.92-3.104l-.028.05c1.773 1.415 3.72 2.416 6.037 2.554 1.94.116 3.9.115 5.818.392 4.214.607 8.29.138 12.343-1.07 1.308-.391 2.714-.467 4.08-.645.24-.031.614.064.74.237.37.508.195.987-.282 1.457-.555.547-1.04 1.165-1.603 1.806 1.98 1.319 3.82.094 5.647.123 1.582.025 3.17-.801 4.762.033-1.036 1.528-2.71 1.807-4.291 2.254-1.347.38-2.641.839-3.58 1.96-.448.536-.445 1.026.03 1.45 1.34 1.2 3 1.516 4.652 1.249 3.013-.484 5.983-1.227 8.983-1.804 2.71-.521 5.404-1.38 8.217-.65Zm-77.622 96.55c.477.359.75.278.722-.236-.004-.077-.34-.184-.52-.18-.07.003-.135.27-.202.417"/><path fill="#7ec8ed" d="M978.908 725.097h3.598l-.006.21-3.617-.16Zm-502.864 16.917c-.461.05-.926.142-1.386.126-.195-.006-.383-.242-.574-.374.474-.047.949-.134 1.42-.12.185.006.36.238.54.368m468.728 105.519h.005Zm85.663-113.038.758-.876c-.107.129-.194.287-.327.38-.181.127-.398.204-.603.304-.003 0 .17.192.17.192m-20.781 72.843c.076.65.42.964 1.013.836.1-.021.245-.483.173-.562-.43-.467-.9-.442-1.33-.012 0-.02.144-.262.144-.262m14.26-15.82.078-.416-.308.203Z"/><rect width="550.51" height="66.67" x="78.969" y="340.372" fill="none" rx="0" ry="0" transform="translate(428.92 400.5)"/><path d="M524.564 792.997q-5.73-.06-9.32-2.57-3.6-2.5-4.78-6.69.65-1.12 2.09-1.8 1.45-.68 2.74-.56 1.07 3.18 3.54 4.84 2.48 1.65 6.02 1.59 3.78-.06 6.08-1.98 2.3-1.91 2.3-5.22 0-5.01-5.25-6.49l-7.85-2.18q-4.13-1.18-6.49-4.04t-2.36-6.82q0-3.54 1.8-6.31t4.96-4.34q3.15-1.56 7.23-1.56 4.54 0 8.17 1.92 3.63 1.91 5.1 5.04-.53.95-1.74 1.86t-2.63 1.39q-2.89-5.02-9.08-5.02-3.66 0-5.96 1.86t-2.3 4.81q0 4.72 6.08 6.43l6.96 1.89q4.19 1.12 6.55 4.16t2.36 7.34q0 3.78-1.86 6.61t-5.08 4.34q-3.21 1.5-7.28 1.5m16.81.07q-.76 0-1.24-.71-.47-.71-.47-1.83 0-1.18.56-1.86.56-.67 1.51-.67 2.59 0 4.98-2.33t5.34-7.82v-31.57q0-5.9 2.51-9.08 2.51-3.19 7.29-3.13 4.36.06 6.81 3.3 2.45 3.25 2.45 8.44 0 4.19-1.54 9.32-1.53 5.14-4.07 9.86.59-.06 1.24-.06 4.43 0 7.05 3.12 2.63 3.13 2.63 8.38v5.08q0 3.42.85 4.95.86 1.54 2.87 1.54.94 0 1.35.73.42.74.42 1.86t-.56 1.8q-.57.68-1.57.68-4.25 0-6.52-2.74-2.27-2.75-2.27-7.76v-6.26q0-3-1.33-4.69-1.32-1.68-3.74-1.68-2.36 0-4.25 1.57-1.89 1.56-3.01 4.27-1.12 2.72-1.18 6.26v10.2q-.59.18-1.3.3t-1.36.12q-1.35 0-2.77-.42v-4.83q-2.42 3.12-4.92 4.39-2.51 1.27-5.76 1.27m15.93-46.85v22.78q2.66-4.07 4.58-8.2 1.91-4.13 2.95-8 1.03-3.86 1.03-7.05 0-3.3-1.09-5.04-1.1-1.74-3.16-1.74-4.31 0-4.31 7.25"/><path d="M580.194 787.997q2.01 0 3.93-1.98t3.21-5.34q-.06-.83-.06-1.65 0-4.49 1.77-7.97t4.81-5.48q3.04-2.01 6.94-2.01 2.06 0 4.07.8 2 .79 3.36 2.15v-2.42q.53-.18 1.24-.29.71-.12 1.47-.12 1.42 0 2.66.41v17.29q0 3.13.97 4.87.98 1.74 3.28 1.74 1 0 1.35.82.36.83.36 1.77 0 .95-.5 1.71-.51.77-1.63.77-5.78 0-7.73-5.19-1.71 2.42-4.27 3.8-2.57 1.39-5.7 1.39-3.42 0-6.04-1.5-2.63-1.51-4.28-4.16-3.66 5.66-9.62 5.66-.77 0-1.24-.71t-.47-1.83q0-2.53 2.12-2.53m12.57-8.97q0 4.19 1.92 6.58t5.28 2.39q3.72 0 5.99-2.54t2.27-6.67v-6.61q-1.18-1.59-3.01-2.56-1.83-.98-3.78-.98-2.53 0-4.48 1.36t-3.07 3.69-1.12 5.34"/><path d="M617.424 793.067q-.76 0-1.24-.71-.47-.71-.47-1.83 0-2.53 2.13-2.53 1.88 0 3.39-1.92 1.5-1.92 2.62-6.4l1.77-6.91q2.48-9.2 9.44-9.2 2.54 0 4.34 1.45 1.8 1.44 2.57 3.98 1.35-2.6 3.57-4.01 2.21-1.42 4.98-1.42 5.78 0 7.85 5.96 1.42-2.83 3.83-4.4 2.42-1.56 5.49-1.56 4.19 0 6.43 2.66 2.24 2.65 2.24 7.49v8.2q0 3.24.86 4.66t2.74 1.42q.83 0 1.27.7.44.71.44 1.89 0 .95-.5 1.71-.5.77-1.62.77-8.55 0-8.55-10.5v-7.55q0-3.07-1.13-4.72-1.12-1.66-3.18-1.66-3.13 0-4.93 3.57t-1.8 9.89v10.14q-.59.18-1.3.3-.7.12-1.35.12-1.42 0-2.72-.42v-16.4q0-3.48-1.21-5.34t-3.57-1.86q-2.18 0-3.77 1.69-1.59 1.68-2.51 4.72-.91 3.03-.91 7.05v10.14q-.59.18-1.3.3t-1.36.12q-1.47 0-2.65-.42v-18.82q0-4.78-2.72-4.78-1.24 0-2.12 1.13-.89 1.12-1.54 3.59l-2.18 8.5q-1.53 5.84-4.25 8.53-2.71 2.68-7.08 2.68"/><path d="M679.554 793.067q-.77 0-1.24-.71t-.47-1.83q0-2.53 2.12-2.53 1.71 0 3.48-.56t4.13-1.92q-2.3-4.01-2.3-9.44 0-3.66 1.36-6.46t3.78-4.43q2.42-1.62 5.48-1.62 2.6 0 4.61 1.21 2 1.21 3.12 3.33 1.12 2.13 1.12 4.9 0 3.78-2.21 6.9-2.21 3.13-7.46 6.79 1.89 1.36 5.07 1.36.83 0 1.3.7.47.71.47 1.89 0 1.12-.53 1.77t-1.53.65q-2.84 0-5.31-.94-2.48-.95-4.13-2.6-5.67 3.54-10.86 3.54m10.86-17.46q0 4.66 1.65 7.43 3.83-2.65 5.69-5.19t1.86-4.84q0-2.12-1.03-3.33t-2.86-1.21q-2.3 0-3.81 2.06-1.5 2.07-1.5 5.08m15.22 17.46q-.77 0-1.24-.71t-.47-1.83q0-2.53 2.12-2.53 1.71 0 3.48-.56t4.13-1.92q-2.3-4.01-2.3-9.44 0-3.66 1.36-6.46t3.77-4.43q2.42-1.62 5.49-1.62 2.6 0 4.6 1.21 2.01 1.21 3.13 3.33 1.12 2.13 1.12 4.9 0 3.78-2.21 6.9-2.21 3.13-7.46 6.79 1.88 1.36 5.07 1.36.83 0 1.3.7.47.71.47 1.89 0 1.12-.53 1.77t-1.54.65q-2.83 0-5.31-.94-2.47-.95-4.13-2.6-5.66 3.54-10.85 3.54m10.85-17.46q0 4.66 1.66 7.43 3.83-2.65 5.69-5.19t1.86-4.84q0-2.12-1.03-3.33-1.04-1.21-2.87-1.21-2.3 0-3.8 2.06-1.51 2.07-1.51 5.08m15.23 17.46q-.77 0-1.24-.71t-.47-1.83q0-2.53 2.12-2.53 2.6 0 4.63-2.16 2.04-2.15 3.25-5.87 1.21-3.71 1.21-8.26 0-1.06-.12-1.94-.12-.89-.3-1.48-.53-.53-1.15-1.71t-1.06-2.51-.44-2.15q.71-1.12 2.27-1.74t3.45-.33q1.12 2.07 1.83 5.2 1.77-.06 4.78-.77 1.89-.41 3.04-.56t1.97-.15q3.19 0 5.02 2.39t1.83 6.46v9.5q0 3.24.85 4.66.86 1.42 2.75 1.42.82 0 1.27.7.44.71.44 1.89 0 .95-.5 1.71-.51.77-1.63.77-8.55 0-8.55-10.5v-9.15q0-2.65-.59-3.71-.59-1.07-2.13-1.07-.53 0-1.18.12-.64.12-2.3.47-2.89.59-4.36.71.06.95.06 1.89 0 6.37-1.83 11.15t-5.16 7.44q-3.34 2.65-7.76 2.65"/><path d="M765.934 787.997q2 0 3.92-1.98t3.22-5.34q-.06-.83-.06-1.65 0-4.49 1.77-7.97t4.81-5.48q3.03-2.01 6.93-2.01 2.06 0 4.07.8 2 .79 3.36 2.15v-2.42q.53-.18 1.24-.29.71-.12 1.48-.12 1.41 0 2.65.41v17.29q0 3.13.97 4.87.98 1.74 3.28 1.74 1 0 1.36.82.35.83.35 1.77 0 .95-.5 1.71-.5.77-1.62.77-5.79 0-7.73-5.19-1.71 2.42-4.28 3.8-2.57 1.39-5.69 1.39-3.43 0-6.05-1.5-2.63-1.51-4.28-4.16-3.66 5.66-9.62 5.66-.76 0-1.24-.71-.47-.71-.47-1.83 0-2.53 2.13-2.53m12.56-8.97q0 4.19 1.92 6.58t5.28 2.39q3.72 0 5.99-2.54t2.27-6.67v-6.61q-1.18-1.59-3.01-2.56-1.83-.98-3.77-.98-2.54 0-4.49 1.36-1.94 1.36-3.07 3.69-1.12 2.33-1.12 5.34m65.55 14.03q-6.02 0-10.35-2.65-4.34-2.66-6.64-7.44t-2.3-11.21q0-6.84 2.51-12.01 2.5-5.16 6.99-8.05 4.48-2.89 10.26-2.89 4.61 0 8.41 1.86 3.81 1.86 6.17 5.16-.3 1.06-1.51 2.18-1.21 1.13-2.39 1.48-2.12-2.77-4.83-4.07-2.72-1.3-5.85-1.3-4.18 0-7.37 2.18-3.19 2.19-4.96 6.08t-1.77 9.09q0 4.89 1.63 8.55 1.62 3.66 4.78 5.69 3.15 2.04 7.69 2.04 3.96 0 6.85-1.59 2.89-1.6 5.25-4.49 1.12.36 2.3 1.3 1.18.95 1.65 1.89-2.71 4.01-6.99 6.11-4.28 2.09-9.53 2.09m18.65-5.06q2 0 3.92-1.98t3.22-5.34q-.06-.83-.06-1.65 0-4.49 1.77-7.97t4.81-5.48q3.03-2.01 6.93-2.01 2.06 0 4.07.8 2 .79 3.36 2.15v-2.42q.53-.18 1.24-.29.71-.12 1.48-.12 1.41 0 2.65.41v17.29q0 3.13.97 4.87.98 1.74 3.28 1.74 1 0 1.36.82.35.83.35 1.77 0 .95-.5 1.71-.5.77-1.62.77-5.79 0-7.73-5.19-1.71 2.42-4.28 3.8-2.57 1.39-5.69 1.39-3.43 0-6.05-1.5-2.63-1.51-4.28-4.16-3.66 5.66-9.62 5.66-.76 0-1.24-.71-.47-.71-.47-1.83 0-2.53 2.13-2.53m12.56-8.97q0 4.19 1.92 6.58t5.28 2.39q3.72 0 5.99-2.54t2.27-6.67v-6.61q-1.18-1.59-3.01-2.56-1.83-.98-3.77-.98-2.54 0-4.49 1.36-1.94 1.36-3.07 3.69-1.12 2.33-1.12 5.34"/><path d="M899.914 793.067q-.77 0-1.24-.71-.48-.71-.48-1.83 0-2.53 2.13-2.53 2.59 0 4.63-2.16 2.04-2.15 3.25-5.87 1.2-3.71 1.2-8.26 0-1.06-.11-1.94-.12-.89-.3-1.48-.53-.53-1.15-1.71t-1.06-2.51-.44-2.15q.7-1.12 2.27-1.74 1.56-.62 3.45-.33 1.12 2.07 1.83 5.2 1.77-.06 4.78-.77 1.89-.41 3.04-.56t1.97-.15q3.19 0 5.02 2.39t1.83 6.46v9.5q0 3.24.85 4.66.86 1.42 2.75 1.42.82 0 1.26.7.45.71.45 1.89 0 .95-.5 1.71-.51.77-1.63.77-8.55 0-8.55-10.5v-9.15q0-2.65-.59-3.71-.59-1.07-2.13-1.07-.53 0-1.18.12t-2.3.47q-2.89.59-4.36.71.06.95.06 1.89 0 6.37-1.83 11.15t-5.17 7.44q-3.33 2.65-7.75 2.65"/><path d="M933.724 793.067q-.76 0-1.24-.71-.47-.71-.47-1.83 0-2.53 2.13-2.53 2.59 0 4.63-2.16 2.03-2.15 3.24-5.87 1.21-3.71 1.21-8.26 0-1.06-.12-1.94-.11-.89-.29-1.48-.53-.53-1.15-1.71t-1.06-2.51q-.45-1.33-.45-2.15.71-1.12 2.28-1.74 1.56-.62 3.45-.33 1.12 2.07 1.83 5.2 1.77-.06 4.77-.77 1.89-.41 3.04-.56t1.98-.15q3.19 0 5.01 2.39 1.83 2.39 1.83 6.46v9.5q0 3.24.86 4.66.85 1.42 2.74 1.42.83 0 1.27.7.44.71.44 1.89 0 .95-.5 1.71-.5.77-1.62.77-8.56 0-8.56-10.5v-9.15q0-2.65-.59-3.71-.59-1.07-2.12-1.07-.53 0-1.18.12t-2.3.47q-2.89.59-4.37.71.06.95.06 1.89 0 6.37-1.83 11.15t-5.16 7.44q-3.33 2.65-7.76 2.65"/><path d="M967.934 787.997q1.24 0 2.66-.77 1.41-.77 2.65-2.36 1.48-2.01 2.16-4.6.67-2.6.85-5.25v-10.62q.53-.18 1.24-.3t1.48-.12q1.35 0 2.65.42v16.99q0 3.13.97 4.87.98 1.74 3.28 1.74 1 0 1.36.82.35.83.35 1.77 0 .95-.5 1.71-.5.77-1.62.77-6.14 0-7.97-5.78-.83 1.36-1.77 2.3-1.59 1.59-3.69 2.54-2.09.94-4.51.94-.83 0-1.27-.8-.44-.79-.44-1.74 0-1 .5-1.77.5-.76 1.62-.76m11.09-32.1q-1.65 0-2.83-1.18t-1.18-2.83q0-1.77 1.15-2.89t2.86-1.12q1.77 0 2.9 1.12 1.12 1.12 1.12 2.89 0 1.71-1.15 2.86t-2.87 1.15"/><path d="M985.474 793.067q-.77 0-1.24-.71-.48-.71-.48-1.83 0-2.53 2.13-2.53 1.89 0 3.39-1.92 1.51-1.92 2.63-6.4l1.77-6.91q2.47-9.2 9.44-9.2 2.53 0 4.33 1.45 1.8 1.44 2.57 3.98 1.36-2.6 3.57-4.01 2.21-1.42 4.98-1.42 5.79 0 7.85 5.96 1.42-2.83 3.84-4.4 2.42-1.56 5.48-1.56 4.19 0 6.43 2.66 2.25 2.65 2.25 7.49v8.2q0 3.24.85 4.66.86 1.42 2.75 1.42.82 0 1.26.7.45.71.45 1.89 0 .95-.5 1.71-.51.77-1.63.77-8.55 0-8.55-10.5v-7.55q0-3.07-1.12-4.72-1.12-1.66-3.19-1.66-3.13 0-4.93 3.57t-1.8 9.89v10.14q-.59.18-1.29.3-.71.12-1.36.12-1.42 0-2.71-.42v-16.4q0-3.48-1.21-5.34t-3.57-1.86q-2.19 0-3.78 1.69-1.59 1.68-2.51 4.72-.91 3.03-.91 7.05v10.14q-.59.18-1.3.3t-1.36.12q-1.47 0-2.65-.42v-18.82q0-4.78-2.72-4.78-1.23 0-2.12 1.13-.88 1.12-1.53 3.59l-2.19 8.5q-1.53 5.84-4.24 8.53-2.72 2.68-7.08 2.68"/></g><path fill="transparent" stroke="transparent" stroke-width="1.712" d="M250 610.445h1000v279.11H250z"/></g></svg>