<svg width="56" height="24" viewBox="0 0 56 24" fill="none" xmlns="http://www.w3.org/2000/svg">
<rect width="56" height="24" rx="4" fill="#FCF4F4"/>
<circle cx="9" cy="12" r="3" fill="#CB2E27"/>
<path d="M20.9325 17V7.54545H22.6452V11.5479H27.0263V7.54545H28.7436V17H27.0263V12.9837H22.6452V17H20.9325ZM30.5325 17V9.90909H32.2037V17H30.5325ZM31.3727 8.9027C31.108 8.9027 30.8803 8.81499 30.6895 8.63956C30.4986 8.46106 30.4032 8.24716 30.4032 7.99787C30.4032 7.7455 30.4986 7.5316 30.6895 7.35618C30.8803 7.17767 31.108 7.08842 31.3727 7.08842C31.6404 7.08842 31.8682 7.17767 32.0559 7.35618C32.2467 7.5316 32.3422 7.7455 32.3422 7.99787C32.3422 8.24716 32.2467 8.46106 32.0559 8.63956C31.8682 8.81499 31.6404 8.9027 31.3727 8.9027ZM37.0059 19.8068C36.4058 19.8068 35.8903 19.7253 35.4594 19.5621C35.0286 19.4021 34.6823 19.1867 34.4207 18.9158C34.1591 18.645 33.9775 18.3449 33.876 18.0156L35.3809 17.6509C35.4487 17.7894 35.5471 17.9264 35.6764 18.0618C35.8057 18.2003 35.9796 18.3142 36.1981 18.4034C36.4197 18.4957 36.6982 18.5419 37.0336 18.5419C37.5076 18.5419 37.9 18.4265 38.2108 18.1957C38.5217 17.9679 38.6771 17.5924 38.6771 17.0692V15.7259H38.594C38.5078 15.8982 38.3817 16.0752 38.2155 16.2567C38.0523 16.4383 37.8354 16.5907 37.5645 16.7138C37.2968 16.8369 36.9598 16.8984 36.5535 16.8984C36.0088 16.8984 35.5148 16.7707 35.0716 16.5153C34.6315 16.2567 34.2807 15.872 34.0191 15.3612C33.7606 14.8472 33.6313 14.204 33.6313 13.4315C33.6313 12.6528 33.7606 11.9957 34.0191 11.4602C34.2807 10.9216 34.6331 10.5138 35.0763 10.2369C35.5194 9.95679 36.0134 9.81676 36.5581 9.81676C36.9736 9.81676 37.3153 9.88755 37.583 10.0291C37.8538 10.1676 38.0693 10.3353 38.2293 10.5323C38.3894 10.7262 38.5109 10.9093 38.594 11.0817H38.6863V9.90909H40.3344V17.1154C40.3344 17.7217 40.1898 18.2234 39.9005 18.6204C39.6112 19.0174 39.2157 19.3144 38.714 19.5114C38.2124 19.7083 37.643 19.8068 37.0059 19.8068ZM37.0198 15.5874C37.3737 15.5874 37.6753 15.5012 37.9246 15.3288C38.1739 15.1565 38.3632 14.9087 38.4925 14.5856C38.6217 14.2624 38.6863 13.8746 38.6863 13.4222C38.6863 12.976 38.6217 12.5851 38.4925 12.2496C38.3663 11.9142 38.1785 11.6541 37.9292 11.4695C37.683 11.2817 37.3799 11.1879 37.0198 11.1879C36.6474 11.1879 36.3366 11.2848 36.0873 11.4787C35.838 11.6726 35.6502 11.9388 35.5241 12.2773C35.3979 12.6128 35.3348 12.9944 35.3348 13.4222C35.3348 13.8562 35.3979 14.2363 35.5241 14.5625C35.6533 14.8857 35.8426 15.138 36.0919 15.3196C36.3443 15.4981 36.6536 15.5874 37.0198 15.5874ZM43.7183 12.8452V17H42.0471V7.54545H43.6814V11.114H43.7645C43.9307 10.7139 44.1876 10.3984 44.5354 10.1676C44.8863 9.93371 45.3325 9.81676 45.8742 9.81676C46.3666 9.81676 46.796 9.91986 47.1622 10.1261C47.5284 10.3323 47.8116 10.6339 48.0116 11.0309C48.2148 11.4279 48.3163 11.9126 48.3163 12.4851V17H46.6452V12.7436C46.6452 12.2666 46.522 11.8957 46.2758 11.631C46.0327 11.3633 45.6911 11.2294 45.251 11.2294C44.9555 11.2294 44.6908 11.294 44.4569 11.4233C44.2261 11.5495 44.0445 11.7326 43.9122 11.9727C43.7829 12.2127 43.7183 12.5036 43.7183 12.8452Z" fill="#CB2E27"/>
</svg>
