<svg width="52" height="24" viewBox="0 0 52 24" fill="none" xmlns="http://www.w3.org/2000/svg">
<rect width="52" height="24" rx="4" fill="#F2F7FB"/>
<circle cx="9" cy="12" r="3" fill="#0C6FBF"/>
<path d="M20.9325 17V7.54545H22.6452V15.5643H26.8093V17H20.9325ZM31.315 17.1385C30.6225 17.1385 30.0224 16.9862 29.5146 16.6815C29.0067 16.3768 28.6128 15.9505 28.3327 15.4027C28.0558 14.8549 27.9173 14.2147 27.9173 13.4822C27.9173 12.7498 28.0558 12.1081 28.3327 11.5572C28.6128 11.0063 29.0067 10.5785 29.5146 10.2738C30.0224 9.96911 30.6225 9.81676 31.315 9.81676C32.0075 9.81676 32.6076 9.96911 33.1154 10.2738C33.6232 10.5785 34.0156 11.0063 34.2926 11.5572C34.5727 12.1081 34.7127 12.7498 34.7127 13.4822C34.7127 14.2147 34.5727 14.8549 34.2926 15.4027C34.0156 15.9505 33.6232 16.3768 33.1154 16.6815C32.6076 16.9862 32.0075 17.1385 31.315 17.1385ZM31.3242 15.7997C31.6997 15.7997 32.0136 15.6966 32.266 15.4904C32.5183 15.2811 32.7061 15.0011 32.8292 14.6502C32.9554 14.2994 33.0185 13.9085 33.0185 13.4776C33.0185 13.0437 32.9554 12.6513 32.8292 12.3004C32.7061 11.9465 32.5183 11.6649 32.266 11.4556C32.0136 11.2463 31.6997 11.1417 31.3242 11.1417C30.9395 11.1417 30.6194 11.2463 30.364 11.4556C30.1116 11.6649 29.9223 11.9465 29.7962 12.3004C29.6731 12.6513 29.6115 13.0437 29.6115 13.4776C29.6115 13.9085 29.6731 14.2994 29.7962 14.6502C29.9223 15.0011 30.1116 15.2811 30.364 15.4904C30.6194 15.6966 30.9395 15.7997 31.3242 15.7997ZM37.3914 17L35.3879 9.90909H37.0914L38.3378 14.8949H38.4024L39.6766 9.90909H41.3616L42.6357 14.8672H42.705L43.933 9.90909H45.6411L43.6329 17H41.8925L40.5629 12.2081H40.466L39.1365 17H37.3914Z" fill="#0C6FBF"/>
</svg>
