<svg width="77" height="24" viewBox="0 0 77 24" fill="none" xmlns="http://www.w3.org/2000/svg">
<rect width="77" height="24" rx="4" fill="#FFFAF2"/>
<circle cx="9" cy="12" r="3" fill="#FFAD0D"/>
<path d="M20.9325 7.54545H23.0284L25.8352 14.3963H25.946L28.7528 7.54545H30.8487V17H29.2053V10.5046H29.1175L26.5046 16.9723H25.2766L22.6637 10.4908H22.576V17H20.9325V7.54545ZM35.7791 17.1385C35.0682 17.1385 34.4542 16.9908 33.9371 16.6953C33.4232 16.3968 33.0277 15.9751 32.7507 15.4304C32.4737 14.8826 32.3352 14.2378 32.3352 13.4961C32.3352 12.7667 32.4737 12.1265 32.7507 11.5756C33.0308 11.0217 33.4216 10.5908 33.9233 10.283C34.425 9.97218 35.0143 9.81676 35.6914 9.81676C36.1284 9.81676 36.5408 9.88755 36.9286 10.0291C37.3195 10.1676 37.6642 10.383 37.9627 10.6754C38.2643 10.9678 38.5013 11.3402 38.6737 11.7926C38.846 12.242 38.9322 12.7775 38.9322 13.3991V13.9116H33.12V12.7852H37.3303C37.3272 12.4651 37.2579 12.1804 37.1225 11.9311C36.9871 11.6787 36.7978 11.4802 36.5547 11.3356C36.3146 11.1909 36.0346 11.1186 35.7145 11.1186C35.3729 11.1186 35.0728 11.2017 34.8143 11.3679C34.5558 11.531 34.3542 11.7464 34.2095 12.0142C34.0679 12.2789 33.9956 12.5697 33.9925 12.8867V13.87C33.9925 14.2824 34.0679 14.6364 34.2188 14.9318C34.3696 15.2242 34.5804 15.4489 34.8512 15.6058C35.122 15.7597 35.439 15.8366 35.8022 15.8366C36.0453 15.8366 36.2654 15.8028 36.4624 15.7351C36.6593 15.6643 36.8301 15.5612 36.9748 15.4258C37.1194 15.2904 37.2287 15.1226 37.3026 14.9226L38.8629 15.098C38.7644 15.5104 38.5767 15.8705 38.2997 16.1783C38.0258 16.483 37.675 16.7199 37.2472 16.8892C36.8194 17.0554 36.33 17.1385 35.7791 17.1385ZM42.9774 17.1246C42.4203 17.1246 41.9217 16.9815 41.4816 16.6953C41.0415 16.4091 40.6937 15.9936 40.4383 15.4489C40.1829 14.9041 40.0551 14.2424 40.0551 13.4638C40.0551 12.6759 40.1844 12.0111 40.4429 11.4695C40.7045 10.9247 41.0569 10.5138 41.5001 10.2369C41.9433 9.95679 42.4372 9.81676 42.982 9.81676C43.3975 9.81676 43.7391 9.88755 44.0068 10.0291C44.2746 10.1676 44.4869 10.3353 44.6439 10.5323C44.8009 10.7262 44.9224 10.9093 45.0086 11.0817H45.0779V7.54545H46.7536V17H45.1102V15.8828H45.0086C44.9224 16.0552 44.7978 16.2383 44.6347 16.4322C44.4716 16.623 44.2561 16.7861 43.9884 16.9215C43.7206 17.0569 43.3836 17.1246 42.9774 17.1246ZM43.4436 15.7536C43.7976 15.7536 44.0992 15.6581 44.3485 15.4673C44.5977 15.2734 44.787 15.0041 44.9163 14.6594C45.0455 14.3147 45.1102 13.9131 45.1102 13.4545C45.1102 12.996 45.0455 12.5974 44.9163 12.2589C44.7901 11.9203 44.6024 11.6572 44.3531 11.4695C44.1069 11.2817 43.8037 11.1879 43.4436 11.1879C43.0712 11.1879 42.7604 11.2848 42.5111 11.4787C42.2618 11.6726 42.0741 11.9403 41.9479 12.282C41.8217 12.6236 41.7586 13.0144 41.7586 13.4545C41.7586 13.8977 41.8217 14.2932 41.9479 14.641C42.0771 14.9857 42.2664 15.258 42.5157 15.4581C42.7681 15.6551 43.0774 15.7536 43.4436 15.7536ZM48.5344 17V9.90909H50.2056V17H48.5344ZM49.3746 8.9027C49.11 8.9027 48.8822 8.81499 48.6914 8.63956C48.5006 8.46106 48.4052 8.24716 48.4052 7.99787C48.4052 7.7455 48.5006 7.5316 48.6914 7.35618C48.8822 7.17767 49.11 7.08842 49.3746 7.08842C49.6424 7.08842 49.8701 7.17767 50.0579 7.35618C50.2487 7.5316 50.3441 7.7455 50.3441 7.99787C50.3441 8.24716 50.2487 8.46106 50.0579 8.63956C49.8701 8.81499 49.6424 8.9027 49.3746 8.9027ZM56.4436 14.0178V9.90909H58.1148V17H56.4944V15.7397H56.4205C56.2605 16.1367 55.9974 16.4614 55.6311 16.7138C55.268 16.9661 54.8202 17.0923 54.2877 17.0923C53.823 17.0923 53.4121 16.9892 53.0551 16.783C52.7012 16.5737 52.4242 16.2706 52.2242 15.8736C52.0241 15.4735 51.9241 14.9903 51.9241 14.424V9.90909H53.5953V14.1655C53.5953 14.6148 53.7184 14.9718 53.9646 15.2365C54.2108 15.5012 54.5339 15.6335 54.934 15.6335C55.1803 15.6335 55.4188 15.5735 55.6496 15.4535C55.8804 15.3335 56.0697 15.1549 56.2174 14.918C56.3682 14.6779 56.4436 14.3778 56.4436 14.0178ZM59.8333 17V9.90909H61.4306V11.114H61.5137C61.6614 10.7077 61.9061 10.3907 62.2477 10.163C62.5893 9.93217 62.9971 9.81676 63.4711 9.81676C63.9512 9.81676 64.3559 9.93371 64.6852 10.1676C65.0176 10.3984 65.2515 10.7139 65.3869 11.114H65.4608C65.6177 10.7201 65.8824 10.4061 66.2548 10.1722C66.6303 9.93525 67.075 9.81676 67.589 9.81676C68.2414 9.81676 68.7739 10.023 69.1863 10.4354C69.5987 10.8478 69.8049 11.4495 69.8049 12.2404V17H68.1291V12.4989C68.1291 12.0588 68.0121 11.7372 67.7782 11.5341C67.5443 11.3279 67.2581 11.2248 66.9196 11.2248C66.5164 11.2248 66.2009 11.351 65.9732 11.6033C65.7485 11.8526 65.6362 12.1773 65.6362 12.5774V17H63.9973V12.4297C63.9973 12.0634 63.8865 11.7711 63.665 11.5526C63.4464 11.334 63.1602 11.2248 62.8063 11.2248C62.5662 11.2248 62.3477 11.2863 62.1507 11.4094C61.9538 11.5295 61.7968 11.7003 61.6799 11.9219C61.5629 12.1404 61.5044 12.3958 61.5044 12.6882V17H59.8333Z" fill="#FFAD0D"/>
</svg>
